<svg xmlns="http://www.w3.org/2000/svg" viewBox="0 0 750 500"><g id="freepik--character-4--inject-24"><path d="M584.67,361.83v39.43H624.1V361.83Zm3,36.45V364.81h33.46v33.47Z" style="fill:#ebebeb"></path><rect x="487.4" y="292.92" width="115.36" height="115.36" style="fill:#455a64"></rect><path d="M509.63,408.28h64.18c.27-2.45-9.56-54.6-21.1-71.37-1.31-1.9-12.54-3.29-16.66,1.44C514.23,363.42,509.11,407.68,509.63,408.28Z" style="fill:#263238"></path><path d="M554.23,341.24c1.82,4.72,8.69,21.26,12.43,33.14,2.5,8,3.46,14.65,4,16.41,0,0-19-6.08-23.22-6.09-6.57,0-17.11,13.7-14.53,15.42,4.07,2.71,23.44,11.9,38.92,14.79,8.41,1.57,24.25-9.12,23-17.62-1.75-11.93-23.31-43.37-31.51-52.29C559.07,340.37,552,335.49,554.23,341.24Z" style="fill:#eb9481"></path><path d="M596,399.81c-.4,8.59-11.15,15.83-17.38,16.21-10.75.65-43-8.74-43-8.74l12.53-24.16s22,7.45,22.51,7.66h0c-.19-.64-5.6-21-8-27.69-.13-.37-.28-.75-.42-1.15-.7-1.87-1.65-4.33-2.71-7v0c-.58-1.48-1.2-3-1.81-4.54h0c-2.65-6.58-5.23-12.85-5.23-12.85,3.69.61,7.34,2.55,13.33,8.84S596.65,385.64,596,399.81Z" style="fill:#263238"></path><path d="M544,402.05c.9-1.71,1.81-3.41,2.7-5.12s1.78-3.34,2.68-5a58.46,58.46,0,0,0,2.65-5.24s0-.07,0,0a44.07,44.07,0,0,0-3,4.75q-1.44,2.5-2.82,5.06t-2.65,5a42.26,42.26,0,0,0-2.42,5.36c0,.08.07.15.12.08A51,51,0,0,0,544,402.05Z" style="fill:#37474f"></path><path d="M577.37,394.35l-6.7-3.56h0c-.19-.64-5.6-21-8-27.69-.13-.37-.28-.75-.42-1.15-.7-1.87-1.65-4.33-2.71-7Z" style="fill:#37474f"></path><path d="M582.91,397.3a54.93,54.93,0,0,0-5.88-3.78c-1-.57-2-1.1-3.1-1.57s-2.32-.87-3.44-1.38c-.09,0-.15.1-.06.13,1,.48,2,1.14,3.05,1.69s2.1,1.13,3.16,1.68c2.09,1.07,4.14,2.21,6.22,3.31C582.91,397.41,583,397.33,582.91,397.3Z" style="fill:#37474f"></path><path d="M578,392.09c-1.69,0-11.84-2.69-13.32-1.29-9,8.49-11.86,6.78-13.78,7.89-14.85,8.54-34.69,18.58-41.77,18.64-10.73.09-15-8.92-13.22-17.43,3.53-16.83,26.22-49.64,36.49-58.36,5.45-4.62,5,2.35,2.76,9.91-1.32,4.44-3.63,11-6,17.51-2.09,5.77-7.62,20.51-7.72,20.86h0a.08.08,0,0,0,0,0s0,0,.11,0c.48-.09,13.18-6.07,25.95-9.36,4.5-1.16,13.87-2.81,17.23-1.31,2,.89,2,2.09,2,2.09a4.92,4.92,0,0,1,3.3,1.24,4.75,4.75,0,0,1,1.46,2.23,5,5,0,0,1,2.67,1.26,4.57,4.57,0,0,1,1.18,2.49C577.79,389.17,578,392.09,578,392.09Z" style="fill:#eb9481"></path><path d="M563,381a24.5,24.5,0,0,0-4,.45c-.09,0-.09.15,0,.14,1.3-.14,2.63-.17,3.94-.21s2.63-.07,3.94-.05h0A21.13,21.13,0,0,0,563,381Z" style="fill:#263238"></path><path d="M571.53,384.7a16.25,16.25,0,0,0-7.09-.63.08.08,0,0,0,0,.15,27.75,27.75,0,0,1,7.09.53S571.56,384.71,571.53,384.7Z" style="fill:#263238"></path><path d="M575.4,388.46a15.93,15.93,0,0,0-6.72-1.26c-.09,0-.12.13,0,.14a39.09,39.09,0,0,1,6.7,1.22C575.42,388.57,575.45,388.48,575.4,388.46Z" style="fill:#263238"></path><path d="M546.93,380.68a28.93,28.93,0,0,0-3.32.74c-1.17.29-2.33.6-3.46,1a64,64,0,0,0-6.68,2.65.07.07,0,1,0,0,.13c2.22-.78,4.47-1.51,6.72-2.21l3.3-1.08c1.13-.37,2.31-.65,3.42-1.07C547,380.79,547,380.67,546.93,380.68Z" style="fill:#263238"></path><path d="M538,383.09a12.26,12.26,0,0,1,3.42-.8l13.36,22.56s-36.81,13.25-44.36,14a15.07,15.07,0,0,1-16.3-14.67c-.21-13.33,21.54-45.35,32.48-57.74,5-5.67,10.85-9.79,12.34-8.86,1.76,1.1-1.43,8.23-3.12,13.55-3.11,9.83-14.26,38.73-14.26,38.73S535.24,384,538,383.09Z" style="fill:#263238"></path><path d="M541.34,382.27c-2.08.12-11,3.24-15.44,5.13a76,76,0,0,0-12.55,6.78c-2.23,1.51-4.36,3.15-6.45,4.85a.07.07,0,1,0,.08.12,133.12,133.12,0,0,1,25-13.59c2.51-1,6.83-2.44,9.28-3.08C541.92,382.3,541.4,382.26,541.34,382.27Z" style="fill:#37474f"></path><path d="M532.51,362.54c-.56.9-1.13,1.8-1.61,2.75l-.06.14c.71-2.17,1.39-4.34,2-6.53,0-.13-.18-.2-.23-.07-3.16,8-6.1,16.11-8.95,24.24-.79,2.28-1.49,4.57-2.21,6.87,0,.08.1.12.13,0,.87-2,1.75-3.92,2.54-5.93s1.54-4,2.28-6q2-5.29,3.76-10.65c.37-.62.75-1.25,1.11-1.88.51-.93.94-1.9,1.37-2.87C532.72,362.51,532.57,362.44,532.51,362.54Z" style="fill:#37474f"></path><path d="M545.86,399.93c-1-1.66-1.94-3.33-2.92-5s-1.89-3.27-2.83-4.91a57,57,0,0,0-3.05-5s-.07,0-.06,0a42.67,42.67,0,0,0,2.46,5c.91,1.7,1.85,3.39,2.8,5.07s1.89,3.28,2.86,4.9a43.58,43.58,0,0,0,3.28,4.9c.05.06.16,0,.13-.07A50.1,50.1,0,0,0,545.86,399.93Z" style="fill:#37474f"></path><path d="M555.35,404.9c-1.11-2.19-2.83-4.33-4.11-6.41,0-.08-.16,0-.12.08,1.16,1.95,2.22,4.05,3.33,6-5.05,2.09-10.42,3.95-15.58,5.78s-10.61,3.65-16,5.21c-3,.87-6,1.81-9.07,2.61-.19,0-.14.2.05.16A136,136,0,0,0,530,414.08c5.39-1.71,10.72-3.62,16-5.6C548.94,407.36,555.44,405.07,555.35,404.9Z" style="fill:#37474f"></path><path d="M546.59,380.69a179.9,179.9,0,0,0-18.53,6.11l-.27.1c-3.16,1.24-5.11,2.16-5.58,2.24l-.1-.06h0a4,4,0,0,0-1-.54c-.89-.32-9.44-1.39-9.22-4s3.69-2.45,4.2-2.42c-.55-.12-5.19-1.21-3.68-3.52,1.07-1.65,5.66-1.41,6.13-1.39-.47-.15-4.74-1.54-3.27-3.91,1.05-1.69,6.18-1.47,6.77-1.37-.48-.18-4.28-.82-2.5-2.86,1.23-1.42,10.89,0,15.19,2.17C541.13,374.38,546.59,380.69,546.59,380.69Z" style="fill:#eb9481"></path><path d="M528.06,386.8l-.27.1a31,31,0,0,0-11.5-4.69c-.28,0-.3-.19,0-.18A21.32,21.32,0,0,1,528.06,386.8Z" style="fill:#263238"></path><path d="M518.77,377.34c6.08,1.2,8.83,2.55,14.07,5.87.07.05.15-.06.08-.11-4.88-3.65-7.91-5.46-14.1-5.92C518.54,377.16,518.49,377.28,518.77,377.34Z" style="fill:#263238"></path><path d="M522.25,372c5.84,1.56,8.92,2.9,13.62,6.71.11.09.25,0,.14-.15a21.88,21.88,0,0,0-13.7-6.72C521.93,371.8,521.88,371.91,522.25,372Z" style="fill:#263238"></path><path d="M551.49,348.59c-3.46,1.24-10.18-3.49-13.09-7.62-.19-.29-.09-3.52-.15-7.45,0-2.39-.16-5-.44-7.46l15.58,2a39.07,39.07,0,0,0-.41,9.45,5.85,5.85,0,0,0,.22,1s0,.1,0,.16C553.76,340.46,554.83,347.39,551.49,348.59Z" style="fill:#eb9481"></path><path d="M553.24,338.61a2.44,2.44,0,0,1,.08.34c-9.32-.4-12.87-4.5-15.17-8.43-.07-1.5-.17-3-.34-4.46l15.58,2a38.52,38.52,0,0,0-.41,9.45,5,5,0,0,0,.22,1S553.22,338.55,553.24,338.61Z" style="fill:#263238"></path><path d="M531.43,309.72c-.85,5.59,4.26,20.63,8.57,23.52,6.26,4.19,15.36,3.33,18.63-3.93,3.17-7-3.83-26.52-8.54-29C543.15,296.59,532.68,301.45,531.43,309.72Z" style="fill:#eb9481"></path><path d="M545.83,316.48s-.06.08,0,.12c.37,1,.62,2.22-.18,2.86,0,0,0,.07,0,.05C546.7,319,546.35,317.38,545.83,316.48Z" style="fill:#263238"></path><path d="M544.57,315.73c-1.67.42-.71,3.73.85,3.34S546,315.37,544.57,315.73Z" style="fill:#263238"></path><path d="M552.08,314.6s.1,0,.11.07c.27,1,.75,2.18,1.77,2.25,0,0,0,.05,0,.06C552.79,317.15,552.17,315.63,552.08,314.6Z" style="fill:#263238"></path><path d="M552.69,313.26c1.62-.6,2.71,2.67,1.21,3.23S551.34,313.77,552.69,313.26Z" style="fill:#263238"></path><path d="M542.82,314.59a11.68,11.68,0,0,0,1.16-.83c.43-.32.82-.53,1-1.06a.74.74,0,0,0-.36-.82,1.83,1.83,0,0,0-1.8.33,2.66,2.66,0,0,0-1.15,1.54A.77.77,0,0,0,542.82,314.59Z" style="fill:#263238"></path><path d="M553.49,311.22a13.54,13.54,0,0,1-1.42,0,2.36,2.36,0,0,1-1.46-.23.74.74,0,0,1-.2-.87,1.79,1.79,0,0,1,1.63-.83,2.66,2.66,0,0,1,1.85.52A.78.78,0,0,1,553.49,311.22Z" style="fill:#263238"></path><path d="M548.21,326c.32.17.66.43,1,.35a2.77,2.77,0,0,0,1-.58,0,0,0,0,1,.06,0,1.45,1.45,0,0,1-1.14.94,1.13,1.13,0,0,1-1.07-.68C548.09,326,548.17,326,548.21,326Z" style="fill:#263238"></path><path d="M548.4,322.62a3.68,3.68,0,0,0,2.78.88,4.7,4.7,0,0,0,1.28-.31l.23-.1.22-.1a.28.28,0,0,0,.14-.29h0a.42.42,0,0,0,0-.1h0l0-.09c-.21-.79-.63-2-.63-2,.33.07,2,.3,1.85-.11a54.42,54.42,0,0,0-4.44-10.19c0-.11-.22,0-.18.08,1,3.28,2.62,6.35,3.71,9.63a6.42,6.42,0,0,0-1.8,0c-.1.06.86,2.26.93,2.63v0a5,5,0,0,1-3.94-.07C548.37,322.46,548.31,322.56,548.4,322.62Z" style="fill:#263238"></path><path d="M533.07,320.32c.88-.73,2-4.43,2.52-6s-1.06-8-1.58-9.94a10.52,10.52,0,0,0-2.57,5.35C531.06,312.1,531.79,316.23,533.07,320.32Z" style="fill:#263238;opacity:0.2"></path><path d="M547.8,306.27a5.14,5.14,0,0,1-4,3,5.27,5.27,0,0,1-4.76-1.89c0-.05-.09,0-.06.05a5.2,5.2,0,0,0,4.86,2.26,5.31,5.31,0,0,0,4.12-3.34C547.94,306.25,547.83,306.2,547.8,306.27Z" style="fill:#263238"></path><path d="M539.16,295.53a8.08,8.08,0,0,0-5.51,5.48,5.73,5.73,0,0,0,.5,3.78s.12,0,.1,0a6.36,6.36,0,0,1,1.29-6.34,8.17,8.17,0,0,1,6.71-2.83,5.22,5.22,0,0,1,3.29,1.37c.09.09.28,0,.2-.13C544.45,295.25,541.74,294.72,539.16,295.53Z" style="fill:#263238"></path><path d="M557.61,297a6.56,6.56,0,0,0-3.67-2.63c-2.07-.58-4,.15-5.94.92,0,0,0,.1,0,.08a9.11,9.11,0,0,1,5.1-.87,6.57,6.57,0,0,1,3.75,2.2,6.22,6.22,0,0,1-5.07,10.14c-.06,0-.08.11,0,.11a6.44,6.44,0,0,0,5.8-10Z" style="fill:#263238"></path><path d="M531.39,312.92s-4.18-4.37-2.74-8c.82-2.05,5.17-3,5.17-3a8,8,0,0,1,4-4.67c3.35-1.84,8.21-1,8.21-1s2.86-2.91,6.57-2c5.17,1.29,6.53,8.23,2.66,11.67-2.71,2.42-7.77.84-7.77.84-.4.18-3.89,3.9-8.13,1,0,0-1.93,3-4.71,2.08A3.88,3.88,0,0,1,531.39,312.92Z" style="fill:#263238"></path><path d="M536.59,321.83s-4.32-4.4-6.37-2.78,1.78,8.41,4.6,8.95a2.72,2.72,0,0,0,3.37-2.05Z" style="fill:#eb9481"></path><path d="M531.36,321s0,.07,0,.07c2,.45,3.26,2,4.25,3.68a1.52,1.52,0,0,0-2.3,0s0,.11.06.09a1.7,1.7,0,0,1,1.93.27,7.59,7.59,0,0,1,1.12,1.34c.12.15.4,0,.31-.17l0,0C536.35,323.79,534,320.78,531.36,321Z" style="fill:#263238"></path><path d="M553.19,338.28l-3.31,9.17-11.6-10.95-3,3.77s11.61,17.65,11.64,16.83l3.41-7.89,5.55,5.19-1-13.51Z" style="fill:#ebebeb"></path><path d="M555.77,347.69c-.23-2.22-.4-4.47-.74-6.68,0-.08-.13-.11-.15,0-.36,2.17.57,10.68.64,12.72l0,0c-.23-.22-5.13-4.55-5.18-4.48-.75,1.26-3.26,7-3.42,7.53-1.84-2.81-8.86-13-11-15.62a.08.08,0,0,0-.13.08c1.64,3,10.93,16.69,11.06,16.64a85.4,85.4,0,0,0,3.56-8.33c.84.95,5.81,5.85,5.82,5.52A72.08,72.08,0,0,0,555.77,347.69Z" style="fill:#263238"></path></g><g id="freepik--character-3--inject-24"><rect x="361.46" y="235.33" width="117.98" height="121.81" style="fill:#9AC017"></rect><path d="M332.69,271.7v62.64h62.64V271.7Zm4.73,57.91V276.43H390.6v53.18Z" style="fill:#a6a6a6"></path><path d="M439.28,269.59c3.1-.73,11.14,1.37,13.89,5.48s2.62,10.84,1.25,11.52-7.31.26-11.41-1.92S437.75,270,439.28,269.59Z" style="fill:#263238"></path><path d="M439.27,269.61c-.1,0-.12-.19,0-.2,2.73-.11,5.66.77,8.27,1.48a15.79,15.79,0,0,1,6,2.65,7.3,7.3,0,0,1,2.74,5.48,14.92,14.92,0,0,1-1.32,7.46c0,.06-.15,0-.13,0,1.19-4.56,2.2-10.12-2.36-13.14C448.58,270.73,443.67,270.5,439.27,269.61Z" style="fill:#263238"></path><path d="M454,285.41c2.73.31,9.89,5.39,11.15,10.55s-2.82,12.88-4.14,13.45-7.42-4.3-9.44-7.91c-1.35-2.42-.36-5.27.2-8.11C452.53,289.21,453.53,285.37,454,285.41Z" style="fill:#263238"></path><path d="M449.88,300.87c-.89-5.26,2-10.53,3.74-15.32,0-.05.1,0,.09,0-.92,4.59-3.61,8.74-3.62,13.52a8.73,8.73,0,0,0,3.4,7.31c2.05,1.48,4.61,2.13,7,2.93.16.05.06.28-.1.23C455.65,308.1,450.79,306.31,449.88,300.87Z" style="fill:#263238"></path><path d="M454.55,285.89a.12.12,0,0,1,.09-.22c3.9,1.78,8.6,4.38,10.73,8.27,2.31,4.22.13,8.7-1.81,12.57,0,0-.1,0-.08,0,1.91-3.92,3.92-8.78,1.31-12.88C462.54,290.06,458.23,287.63,454.55,285.89Z" style="fill:#263238"></path><path d="M460.64,309.28a11.66,11.66,0,0,0-4.27,8.18c-.4,6.32-2.87,5.33-9.49,7.67-5.6,2-6.17,8.53-2.79,11.39,0,0-2.17-3.78,1.5-6.11,4.38-2.79,15.45,1,20.06-6.07C471.61,315.2,460.64,309.28,460.64,309.28Z" style="fill:#263238"></path><path d="M458.5,312.4c.06-.09-.09-.21-.17-.12a9.5,9.5,0,0,0-1.59,2.89c-.45,1.38-.33,2.81-.68,4.19-.89,3.54-5,3.84-8,4.35-4,.69-6.95,3.46-6.76,7.7a0,0,0,0,0,.09,0,7.15,7.15,0,0,1,3.63-6.47c2.24-1.23,4.93-1,7.3-1.81,1.62-.57,3.2-1.44,3.81-3.14a14.22,14.22,0,0,0,.46-2.92A9.88,9.88,0,0,1,458.5,312.4Z" style="fill:#263238"></path><path d="M461.77,309.93s-.08,0,0,.06c2.5,2,5.12,4,6.11,7.22,1.06,3.45-.4,7.16-2.95,9.57-2.86,2.69-6.3,1.89-9.83,1.57a14.34,14.34,0,0,0-7.51.83c-.07,0,0,.16.06.13,3.87-1.32,7.61-.51,11.56-.27a7.86,7.86,0,0,0,7.41-3.84C470.53,319.3,467.13,313.37,461.77,309.93Z" style="fill:#263238"></path><path d="M441.62,266.7a1.09,1.09,0,0,1,1.71,1.34C442.48,269.16,440.77,267.82,441.62,266.7Z" style="fill:#9AC017"></path><path d="M440.81,268.55a1.09,1.09,0,0,1,1.71,1.34C441.67,271,440,269.67,440.81,268.55Z" style="fill:#9AC017"></path><path d="M439.68,270.25a1.09,1.09,0,0,1,1.71,1.34A1.09,1.09,0,0,1,439.68,270.25Z" style="fill:#9AC017"></path><path d="M438.37,271.74a1.09,1.09,0,0,1,1.71,1.34C439.23,274.2,437.52,272.86,438.37,271.74Z" style="fill:#9AC017"></path><path d="M436.79,273c.85-1.12,2.56.22,1.71,1.34A1.09,1.09,0,0,1,436.79,273Z" style="fill:#9AC017"></path><path d="M435.07,274a1.09,1.09,0,0,1,1.71,1.34C435.93,276.4,434.23,275.06,435.07,274Z" style="fill:#9AC017"></path><path d="M433.44,294.1c-4.69,5.78-29.8,24-51,23.64-7.2-.11-27.2-30.84-30.9-42.52-2.65-8.39,15.16-12.63,20.2-11.42,6.28,1.52,18.52,27.87,20.94,28,7.2.5,19.56-3.83,34.73-5.37C435.22,285.68,437.06,289.66,433.44,294.1Z" style="fill:#ad6359"></path><path d="M352.25,277.15c-1.34-2.92-7.63-19.15-8.14-23.32s-1.1-16.31,2.06-17,3.61,2.83,3.61,2.83.56-5.17,3.81-5.6,3.78,5.1,3.78,5.1,1-5.26,4.23-5.46,2.87,5.45,2.87,5.45.65-4.85,3.41-3.88c3.33,1.17,1.11,10,2,14.54.21,1,5.68,20.74,5.68,20.74Z" style="fill:#ad6359"></path><path d="M364.49,238.64c-1.61,6.47-1.2,9.59.86,15.83,0,.12-.13.21-.18.08-2.58-5.92-3.66-9.75-1-16C364.31,238.24,364.57,238.33,364.49,238.64Z" style="fill:#263238"></path><path d="M357.5,238.62c-1.08,6.87-.66,10.25,1,16.95,0,.09-.13.14-.16.05-2.2-6.43-3.19-10.28-1.2-17C357.24,238.31,357.55,238.3,357.5,238.62Z" style="fill:#263238"></path><path d="M349.88,240c-.57,6.74-.27,10.46,2.19,16.75a.13.13,0,0,1-.23.11c-3.13-6.17-3.54-10.82-2.17-16.85C349.77,239.56,349.92,239.54,349.88,240Z" style="fill:#263238"></path><path d="M380,273.57s.93-8.31.53-12.05-7-17.14-10-15.88c-3.84,1.63-1.55,10.12.12,14.13,0,0-8.89,3.77-8.56,10.22S380,273.57,380,273.57Z" style="fill:#ad6359"></path><path d="M369.65,246.44c-2.43,4,.1,9.13,1.43,13.14a.39.39,0,0,1-.36.53c-3.62,1.83-8.2,5.46-8.8,9.7a.1.1,0,0,1-.19,0c0-4.64,4.23-8.57,8.32-10.32-1.42-4.09-3.73-9.34-.43-13.07C369.63,246.39,369.67,246.41,369.65,246.44Z" style="fill:#263238"></path><path d="M403.43,289.8,412.17,310s13.22-6.29,21.26-14.42-.9-10.86-8.68-9.68S403.43,289.8,403.43,289.8Z" style="fill:#ebebeb"></path><path d="M433.43,295.62c-8,8.13-21.26,14.42-21.26,14.42l-2.66-6.15,26.63-15.44C437.12,290.07,436.58,292.43,433.43,295.62Z" style="fill:#c7c7c7"></path><path d="M415.47,307.2a155,155,0,0,1-7.55-17.37c0-.07.09-.12.12,0,.59,1.56,4.75,10.16,7.56,17.36C415.64,307.24,415.51,307.28,415.47,307.2Z" style="fill:#263238"></path><path d="M413.4,329.76l-3.59,27.38h57.31S459.54,305.79,447.3,290c-6.12-7.89-14.32-7.68-20.12-1.65-1.27,1.31-14.07,19.6-16.33,27.15C408.88,322.19,413.4,329.76,413.4,329.76Z" style="fill:#ebebeb"></path><path d="M430.08,291.11l-3.62,9.71q-1.79,4.86-3.44,9.75c-1,3.28-2.25,6.56-1.76,9.9a25.21,25.21,0,0,0,3.25,9.54l.08.14v.14c-.5,4.35-1.09,8.7-1.62,13s-1.14,8.69-1.76,13q.56-6.56,1.19-13.09c.44-4.36.84-8.72,1.32-13.07l.06.27a26,26,0,0,1-3.49-9.89,14.34,14.34,0,0,1,.37-5.3c.44-1.7,1-3.35,1.53-5,1.11-3.29,2.42-6.49,3.73-9.69S428.62,294.25,430.08,291.11Z" style="fill:#263238"></path><path d="M422.08,303.76a.86.86,0,0,0,.63,1,.79.79,0,0,0,.9-.7.85.85,0,0,0-.63-1A.78.78,0,0,0,422.08,303.76Z" style="fill:#263238"></path><path d="M418.61,313.21a.85.85,0,0,0,.63,1,.78.78,0,0,0,.89-.69.85.85,0,0,0-.63-1A.78.78,0,0,0,418.61,313.21Z" style="fill:#263238"></path><path d="M418.17,322.85a.85.85,0,0,0,.63,1,.79.79,0,0,0,.9-.69.86.86,0,0,0-.63-1A.79.79,0,0,0,418.17,322.85Z" style="fill:#263238"></path><path d="M420.85,330.84a.85.85,0,0,0,.63,1,.79.79,0,0,0,.9-.69.86.86,0,0,0-.63-1A.79.79,0,0,0,420.85,330.84Z" style="fill:#263238"></path><path d="M419.81,339.55a.86.86,0,0,0,.63,1,.78.78,0,0,0,.89-.7.86.86,0,0,0-.63-1A.78.78,0,0,0,419.81,339.55Z" style="fill:#263238"></path><path d="M418.86,348.15a.86.86,0,0,0,.63,1,.79.79,0,0,0,.9-.7.85.85,0,0,0-.64-1A.77.77,0,0,0,418.86,348.15Z" style="fill:#263238"></path><path d="M430.34,387.13c2.89,2,7.75-6.68,9.4-8.53s2.37-1.79,2.27-.38l3.76-14.92c-1.95,1.51-6.08,4.76-8.28,6.9C434.54,373.06,427.45,385.17,430.34,387.13Z" style="fill:#ad6359"></path><path d="M452,292.22c12.24,9.87,27.67,27.23,30.82,38.45,2.42,8.66-9.76,38.75-13.39,45.77-1.58,3.06-22.54-6.25-23.46-9.82s13.69-29.48,13.83-32.23-9.41-20.91-15.92-33.19C435.93,286.32,441.54,283.83,452,292.22Z" style="fill:#ad6359"></path><path d="M432.4,395.7c1.93,2.1,5.84-.45,5.84-.45s-3.48,4.3-.76,6,6.43-2,6.43-2-3,4.12-.15,5.58,6.49-1.73,6.49-1.73-.2,1.58,2.27,1.72c3.54.2,8.59-5.54,10.52-9.16s6.31-18.31,6.95-20.57l-23.15-12.58s-.41.3-1.07.82L442,378.22c-.06.93-2.71,6.66-3.67,8.31C436.17,390.24,430.23,393.34,432.4,395.7Z" style="fill:#ad6359"></path><path d="M438.36,395c5.19-3.93,6.78-6.54,9-12.54,0-.12.23-.08.19.05-1.67,6.07-3.19,9.64-9.05,12.76C438.25,395.46,438.11,395.23,438.36,395Z" style="fill:#263238"></path><path d="M443.65,399.34c5-4.56,6.78-7.38,9.61-13.49,0-.09.19,0,.15.06-2.26,6.23-3.86,9.75-9.49,13.64C443.67,399.73,443.42,399.54,443.65,399.34Z" style="fill:#263238"></path><path d="M450.27,403c4.55-4.76,6.6-7.78,8.58-14.06a.12.12,0,0,1,.24.06c-1.4,6.6-3.93,10.38-8.66,14.12C450.1,403.36,450,403.28,450.27,403Z" style="fill:#263238"></path><path d="M449.65,319.23,467.32,306s-9.18-11.4-18.95-17.34S438,292.08,441,299.38,449.65,319.23,449.65,319.23Z" style="fill:#ebebeb"></path><path d="M463.79,303.49a156.67,156.67,0,0,1-15.15,11.37c-.06,0-.13-.06-.07-.11,1.39-.94,8.79-7,15.15-11.38C463.79,303.32,463.86,303.43,463.79,303.49Z" style="fill:#263238"></path><path d="M446.54,311.75c-1.07-2.41-2.54-5.92-3.76-8.27,0,0-.07,0-.06,0,.48,1.37,1,2.74,1.59,4.09a2.39,2.39,0,0,0-.13-.21c-.44-.63-.9-1.25-1.39-1.85,0,0,0,0,0,0,.37.68.77,1.35,1.2,2,.27.41.56.8.85,1.19.31.71,1,2.47,1.33,3.18.52,1.19,3.06,7.89,3.17,7.81a18.28,18.28,0,0,0,1.78-1.33c.09-.07,0-.23-.13-.16-.32.27-1.12.8-1.25.9-.57-1.21-1-2.49-1.57-3.73S447.09,313,446.54,311.75Z" style="fill:#263238"></path><path d="M439.11,286.23c-.3,1-5.57,7.44-10.26,7-1.53-.16-1.05-8.54-1.05-8.54l-.11-.62-1.48-8.78,10.54-6,1.52-.78s.24,2.43.52,5.45c0,.14,0,.28,0,.43s0,.33.05.49c.05.46.09.92.13,1.38s.06.69.08,1.06,0,.73.07,1.1A57.94,57.94,0,0,1,439.11,286.23Z" style="fill:#ad6359"></path><path d="M438.79,273.93A17.89,17.89,0,0,1,427.69,284l-1.48-8.78,10.54-6,1.52-.78S438.51,270.91,438.79,273.93Z" style="fill:#263238"></path><path d="M415.22,259.81c-3.18,15.29,5.63,18.92,8.92,19.6,3,.61,13.27,2.34,18-12.55s-1.37-21.19-8.15-23S418.39,244.51,415.22,259.81Z" style="fill:#ad6359"></path><path d="M420.38,256.2a9.75,9.75,0,0,0,1.08,0,1.8,1.8,0,0,0,1.09-.25.56.56,0,0,0,.11-.67,1.39,1.39,0,0,0-1.29-.55,2,2,0,0,0-1.37.5A.59.59,0,0,0,420.38,256.2Z" style="fill:#263238"></path><path d="M430.89,258.55c-.35-.11-.66-.26-1-.4a1.81,1.81,0,0,1-.95-.6.55.55,0,0,1,.12-.67,1.38,1.38,0,0,1,1.39-.09,2,2,0,0,1,1.13.92A.6.6,0,0,1,430.89,258.55Z" style="fill:#263238"></path><path d="M428.19,261.86s.07.06.06.1c-.24,1-.33,2.27.55,2.8,0,0,0,.07,0,.06C427.66,264.43,427.8,262.8,428.19,261.86Z" style="fill:#263238"></path><path d="M429.33,261c1.7.19,1.18,3.59-.39,3.4S427.9,260.78,429.33,261Z" style="fill:#263238"></path><path d="M430,261.23c.26.23.5.62.86.71s.77-.21,1.09-.51c0,0,.06,0,.05.05-.09.65-.44,1.28-1.15,1.27s-1-.65-1.08-1.33C429.73,261.29,429.86,261.13,430,261.23Z" style="fill:#263238"></path><path d="M421.76,260.39c0-.05-.09,0-.09.08-.12,1-.44,2.25-1.44,2.46,0,0,0,.06,0,.06C421.42,263,421.82,261.41,421.76,260.39Z" style="fill:#263238"></path><path d="M421,259.15c-1.67-.37-2.3,3-.75,3.35S422.38,259.46,421,259.15Z" style="fill:#263238"></path><path d="M420.24,259.24c-.3.13-.63.41-.95.37s-.58-.46-.75-.85c0,0-.05,0-.06,0-.14.65-.05,1.36.55,1.6s1.06-.26,1.33-.88C420.41,259.39,420.36,259.19,420.24,259.24Z" style="fill:#263238"></path><path d="M425.8,269.86c-.28.22-.57.54-1,.53a2.84,2.84,0,0,1-1.11-.39,0,0,0,0,0-.05.05,1.44,1.44,0,0,0,1.28.72,1.14,1.14,0,0,0,.94-.85C425.92,269.86,425.84,269.83,425.8,269.86Z" style="fill:#263238"></path><path d="M422,265.35s-.48,1.53-.6,2.27c0,.07.16.13.41.19h0a3.55,3.55,0,0,0,3.63-.75c.06-.06,0-.15-.09-.12a5.35,5.35,0,0,1-3.36.39c0-.21.9-2.59.78-2.62a6.59,6.59,0,0,0-1.74.1c.9-3.22,2.3-6.27,3.15-9.49a.1.1,0,0,0-.19-.07,53.86,53.86,0,0,0-3.82,10.07C420.11,265.73,421.72,265.42,422,265.35Z" style="fill:#263238"></path><path d="M426.86,245.83a6.88,6.88,0,0,0-.19,4c1.32,3.61,5.57,3.1,6.86,4.6s.49,4,1.57,5.41c1.51,1.93,3.85,1.46,4,2.68s.59,5.1,2.07,5.73,10.86-24-9.1-25.08c0,0-2.62-1.37-7.06.35-4.89,1.91-7.66,9.4-7.66,9.4s.11-.1.85-.63c1-.76,1.48-1.5,2.24-2,1.19-.75,1.76-.37,3-1.1A13.18,13.18,0,0,0,426.86,245.83Z" style="fill:#263238"></path><path d="M427.27,244.76a12.69,12.69,0,0,0-.87,3,5.53,5.53,0,0,0,.14,3,4.1,4.1,0,0,0,2.11,2c.91.44,2,.64,2.93,1.14a3.17,3.17,0,0,1,1.23,1.13,4.08,4.08,0,0,1,.44,1.59,5.54,5.54,0,0,0,.84,2.85,3.47,3.47,0,0,0,2.56,1.38,7.29,7.29,0,0,1,3.07.45,7.39,7.39,0,0,0-3.08-.21,3.8,3.8,0,0,1-2.85-1.38,5.62,5.62,0,0,1-1-3,3.92,3.92,0,0,0-.4-1.41,2.7,2.7,0,0,0-1.07-.93c-.87-.47-1.92-.7-2.88-1.17a5.62,5.62,0,0,1-1.35-.91,3.35,3.35,0,0,1-.93-1.35,5.83,5.83,0,0,1,0-3.18A13.19,13.19,0,0,1,427.27,244.76Z" style="fill:#263238"></path><path d="M426.8,245.63a11.15,11.15,0,0,1-1.22,2.65,5.16,5.16,0,0,1-2.21,2,7.64,7.64,0,0,1-1.42.4,2.43,2.43,0,0,0-1.15.62,7.51,7.51,0,0,1-1,1.09,3.14,3.14,0,0,1-1.34.61,3.41,3.41,0,0,0,1.17-.79,8,8,0,0,0,.85-1.15,2.45,2.45,0,0,1,1.31-.82,8,8,0,0,0,1.35-.41,5.39,5.39,0,0,0,2.08-1.78A20.76,20.76,0,0,0,426.8,245.63Z" style="fill:#263238"></path><path d="M438.05,266.08s4.11-4.31,6.11-2.78-1.59,8.14-4.3,8.71a2.65,2.65,0,0,1-3.29-1.94Z" style="fill:#ad6359"></path><path d="M443.08,265.17s0,.06,0,.07c-1.92.46-3.12,2-4,3.61a1.45,1.45,0,0,1,2.21-.06c.05,0,0,.1-.06.08a1.61,1.61,0,0,0-1.85.3,7.48,7.48,0,0,0-1.07,1.3c-.11.15-.38,0-.29-.16l0,0C438.31,268,440.58,265,443.08,265.17Z" style="fill:#263238"></path><path d="M427.68,285.35l2.21,7.12,9.28-8,2.2,3s-9.5,13.18-9.51,12.55l-2.36-6.17-4.43,3.8,1.17-10.35Z" style="fill:#ebebeb"></path><path d="M425.36,292.46c.25-1.7.45-3.42.78-5.11,0-.06.11-.08.12,0,.21,1.68-.79,8.19-.91,9.76l0,0c.19-.16,4.1-3.33,4.13-3.27.54,1,2.28,5.49,2.39,5.9,1.5-2.1,7.23-9.69,9-11.65.05-.05.14,0,.1.07-1.36,2.23-9,12.47-9.06,12.43a68.32,68.32,0,0,1-2.46-6.53c-.68.71-4.66,4.32-4.65,4.06A53.41,53.41,0,0,1,425.36,292.46Z" style="fill:#263238"></path></g><g id="freepik--character-2--inject-24"><rect x="487.4" y="155.37" width="129.39" height="129.39" style="fill:#dbdbdb"></rect><path d="M542.57,122.58v87.17h87.17V122.58ZM625,205H547.3V127.31H625Z" style="fill:#263238"></path><path d="M530.19,232.25l7,.49A21.6,21.6,0,0,0,540,220c-.08-1,2.05,4.9.73,13,7.39.51,17.45,1.21,26.23,1.74.33-3.43.79-6.59.79-6.59a38.38,38.38,0,0,0,1.13,6.71c1.2.08,2.38.14,3.51.2a132.3,132.3,0,0,1,1.32-14.59,46.91,46.91,0,0,0,3.67,14.86c5.59.28,9.26.36,9,.08-8-10.07-1.56-15.37-3.58-24-2.41-10.35-11.15-12.38-10.54-20,.49-6.24,1.78-17.53-6-20.32A15.21,15.21,0,0,0,550,167.12c-12.69,4.2-8.63,23.69-9.66,27.57-1.47,5.54-4.23,7.39-6.51,13.69s.43,10.79.56,15.18S528.79,232.17,530.19,232.25Z" style="fill:#263238"></path><path d="M586.75,234a22,22,0,0,1-2.46-5.59,11.52,11.52,0,0,1,.29-5.87,58.64,58.64,0,0,0,1.31-6.12,16.22,16.22,0,0,0-.32-6.46,14.31,14.31,0,0,0-3.11-5.7,37.88,37.88,0,0,0-4.61-4.29,23.11,23.11,0,0,1-4.25-4.31,11.31,11.31,0,0,1-2-5.69,10.55,10.55,0,0,0,1.34,6.09,21,21,0,0,0,4.07,4.82,47.2,47.2,0,0,1,4.27,4.35,13.7,13.7,0,0,1,2.69,5.15,16.14,16.14,0,0,1,.32,5.85c-.21,2-.67,4-1,6a20.77,20.77,0,0,0-.34,3.18,9.1,9.1,0,0,0,.56,3.2A17.91,17.91,0,0,0,586.75,234Z" style="fill:#263238"></path><path d="M542.59,174a31.19,31.19,0,0,0-2,7.38c-.43,2.51-.74,5-1,7.57l-.45,3.77a18.88,18.88,0,0,1-.73,3.59,20.46,20.46,0,0,1-3.7,6.3,28.7,28.7,0,0,0-2.19,3.24,17.46,17.46,0,0,0-1.56,3.67,27.19,27.19,0,0,0-.73,3.87,16.4,16.4,0,0,0,0,4c.17,1.31.48,2.56.73,3.78a20.06,20.06,0,0,1,.42,3.69,7.85,7.85,0,0,1-3.36,6.31,8,8,0,0,0,4.15-6.28,19.53,19.53,0,0,0-.15-3.9c-.17-1.28-.43-2.52-.51-3.74a20,20,0,0,1,.91-7.24,17.44,17.44,0,0,1,1.46-3.31,27.7,27.7,0,0,1,2.11-3.05,36.08,36.08,0,0,0,2.23-3.19,16,16,0,0,0,1.65-3.64,20.62,20.62,0,0,0,.68-3.89c.13-1.28.21-2.55.29-3.82.17-2.54.3-5.07.54-7.59A36.51,36.51,0,0,1,542.59,174Z" style="fill:#263238"></path><path d="M603.64,281.21c0-.15,0-.3-.08-.45a5.43,5.43,0,0,1,.09.56A.41.41,0,0,0,603.64,281.21Z" style="fill:#9AC017"></path><path d="M578.6,285.64a1.59,1.59,0,0,0,.26.14l0-.07h0l-.27-.06Z" style="fill:#9AC017"></path><path d="M542.82,215.64c-15.72,17.68-34.75,54.15-30.48,61.12,4.75,7.76,27.42-17.42,26.64-18.56-.66-1,6.71-22.78,12.07-38.73S546.71,211.27,542.82,215.64Z" style="fill:#d3766a"></path><path d="M542.82,215.64c-15.72,17.68-34.75,54.15-30.48,61.12,4.75,7.76,27.42-17.42,26.64-18.56-.66-1,6.71-22.78,12.07-38.73S546.71,211.27,542.82,215.64Z" style="fill:#455a64"></path><path d="M544.94,237.77c-1.54,4.65-2.94,9-4,12.5-2.43.11-9.54-.28-16.92-7.38,2.22-3.93,4.62-7.88,7.1-11.66A22.1,22.1,0,0,0,544.94,237.77Z" style="fill:#ebebeb"></path><path d="M527.66,284.82l3.94-26.75s-6.32-11-2.65-19c1.85-4,14.56-23.64,21.4-28.61,6.42-4.66,15.22-.41,18.21,3.64,8.6,11.66,12.79,32.64,17.59,70.69Z" style="fill:#455a64"></path><path d="M539.17,222.82c-1.3,1.78-2.56,3.59-3.8,5.42.34-.71.68-1.42,1-2.13,0-.05,0-.1-.07,0-.46.89-.89,1.79-1.3,2.7q-2.49,3.67-4.82,7.46a19.84,19.84,0,0,0-1.71,3.34,14.94,14.94,0,0,0-.83,3.54,17.81,17.81,0,0,0-.06,3.65,24.38,24.38,0,0,0,.53,3.71,23.13,23.13,0,0,0,1.3,4.06c.28.64.57,1.27.89,1.9s.87,1.72.87,1.76c-.12.64-.24,1.09-.32,1.63s-.17,1.1-.25,1.65c-.17,1.1-1.59,11.78-1.75,12.88-.32,2.18-.6,4.36-.87,6.55-.15,1.26-.24,2.52-.41,3.77,0,.05.07.07.08,0,.18-1.09.45-2.16.64-3.25s.4-2.18.61-3.27c.41-2.2,2-14,2.34-16.21.1-.61.19-1.22.29-1.84a11.59,11.59,0,0,0,.23-2,49.16,49.16,0,0,1-2.72-6.84,24.06,24.06,0,0,1-.77-3.64,18.94,18.94,0,0,1,0-3.61,16.4,16.4,0,0,1,.69-3.55,19.07,19.07,0,0,1,1.54-3.38c1.28-2.27,2.64-4.5,4-6.71q2.34-3.76,4.76-7.49S539.2,222.78,539.17,222.82Z" style="fill:#263238"></path><path d="M512.34,276.76c4,5.15,14.23,5.64,39.85,9.28,3.54.51,13.83-23.55,10.07-24.28-4.73-.93-23.3-3.49-24.68-3.5C525.93,258.12,509.61,273.27,512.34,276.76Z" style="fill:#d3766a"></path><path d="M557.13,260.86s10.83,1.07,16.35,3.39A38.47,38.47,0,0,1,588,275.61c4.16,5.27,10.56,20.9,6.38,23.53-3.78,2.38-9.52-13.93-9.52-13.93s8.59,15.66,3.51,17.69-10.67-17.28-10.67-17.28,8.47,16.29,2.9,17.55c-4.21,1-10.25-16.24-10.25-16.24s7.18,14.05,2.89,15.21c-4.74,1.29-11.31-14.23-11.31-14.23-11.4,1.13-17.3-3-21.14-6.43C539.81,280.65,557.13,260.86,557.13,260.86Z" style="fill:#d3766a"></path><path d="M582.18,279.61c1.08,1.8,2.18,3.62,3.09,5.51s1.76,3.82,2.49,5.79a35.22,35.22,0,0,1,2.12,7.93c-1.06-4.77-4.22-11.59-5.14-13.49s-1.72-3.82-2.63-5.71A0,0,0,1,1,582.18,279.61Z" style="fill:#263238"></path><path d="M575.29,282.78c1.27,2.36,2.63,4.66,3.8,7.07s2,4.8,3,7.28c.08.19,0,.17-.14,0-1.09-2.44-2.29-4.61-3.41-7s-2.15-4.89-3.36-7.27C575.21,282.76,575.27,282.74,575.29,282.78Z" style="fill:#263238"></path><path d="M568.88,284.43a59.35,59.35,0,0,1,5,11.27c.07.19-.09.15-.17-.05-1.59-3.77-2.8-6.75-4.93-11.14C568.73,284.44,568.84,284.36,568.88,284.43Z" style="fill:#263238"></path><path d="M565.31,261.05l-21.09,24.82s-28.8-2-32.12-9.6,18.61-18.65,25.45-18S565.31,261.05,565.31,261.05Z" style="fill:#455a64"></path><path d="M526.45,261.51c1.66-1.14,6.36-3.82,11.1-3.29a0,0,0,0,1,0,.08c-3.89.12-9.37,2.31-11.06,3.27C526.45,261.6,526.41,261.53,526.45,261.51Z" style="fill:#263238"></path><path d="M539.76,281.58c8.29-8.78,15.67-19.27,17.09-21,.06-.08-.08-.18-.14-.1-1.3,1.78-11,12.85-17.1,21C539.54,281.57,539.68,281.66,539.76,281.58Z" style="fill:#263238"></path><rect x="507.43" y="235.93" width="46.73" height="35.89" transform="translate(175.89 723.18) rotate(-78.46)" style="fill:#9AC017"></rect><rect x="527.08" y="228.62" width="17.01" height="5.16" transform="translate(57.44 -102.99) rotate(11.6)" style="fill:#ebebeb"></rect><polygon points="540.65 229.61 538.6 229.18 539.07 226.86 534.09 225.83 533.61 228.16 531.56 227.74 532.43 223.5 541.55 225.37 540.65 229.61" style="fill:#ebebeb"></polygon><path d="M572.77,219.68C589.71,241.23,596.1,280,586.7,283c-8.59,2.76-43.92-6.08-54.45-9.66-3.09-1.05,6.46-25.08,9.77-24,4,1.35,25.84,6.53,26.27,6.54.91,0-3.95-23.82-6-34.63C559.35,206.21,566.41,211.58,572.77,219.68Z" style="fill:#d3766a"></path><path d="M513.77,240.32a3.87,3.87,0,0,0-.34,4.42,5.78,5.78,0,0,0-3.15,2.34c-1.22,2,1.45,4.85,1.45,4.85a7.09,7.09,0,0,0-2.93,3c-1,2.07,1.32,5.29,1.32,5.29a6.21,6.21,0,0,0-.92,4.25c.74,3.94,6.43,6.18,10,7.64s15.2,2.21,17.39,2.58l9.56-23.07s-14.31-11.13-18.8-12.25C523.62,238.43,515.78,238,513.77,240.32Z" style="fill:#d3766a"></path><path d="M513.74,244.44c4.26,0,8.27,1.32,12.35,2.38.09,0,0,.16,0,.14-4-1.1-8.26-1.38-12.34-2.32A.1.1,0,0,1,513.74,244.44Z" style="fill:#263238"></path><path d="M511.93,251.66a11,11,0,0,1,2.82.67c1,.31,2,.63,2.92,1,2,.68,3.87,1.41,5.78,2.19.08,0,0,.17,0,.14q-2.91-1-5.85-1.91c-1-.3-2-.59-2.95-.87a13.36,13.36,0,0,1-2.76-.92A.15.15,0,0,1,511.93,251.66Z" style="fill:#263238"></path><path d="M510.2,260.23a7.81,7.81,0,0,1,2.51.75c.87.33,1.76.65,2.64,1,1.76.63,3.53,1.27,5.31,1.84a.08.08,0,0,1,0,.15c-1.81-.58-3.64-1.13-5.45-1.72l-2.66-.89a7,7,0,0,1-2.35-1A.06.06,0,0,1,510.2,260.23Z" style="fill:#263238"></path><path d="M568,254.91c.27-.17-4.8-23.17-6.5-35.18s3.66-10.85,11.37-.59c8.27,11,23,40.76,17.89,62.8-1.65,7.14-52.78-2.86-52.78-2.86l6.89-29.39S567.55,255.16,568,254.91Z" style="fill:#455a64"></path><path d="M588.81,252.73c-8.34,2.44-17.39,1.2-21.08.51-.53-2.89-1.82-9.15-3.14-15.91,8.76,1,14.7-.28,17.95-1.37A113.59,113.59,0,0,1,588.81,252.73Z" style="fill:#ebebeb"></path><path d="M544.64,276.06c3.11-10.24,4.82-21.46,5.26-23.4,0-.09-.13-.11-.14,0-.33,1.92-3.69,14.54-5.28,23.39C544.46,276.13,544.61,276.15,544.64,276.06Z" style="fill:#263238"></path><path d="M577.58,258.31c-1-.17-27.09-7.52-32.79-8.41-.09,0,0-.31.08-.29a241.07,241.07,0,0,1,33.06,8.22C579.23,258.35,579.42,258.63,577.58,258.31Z" style="fill:#263238"></path><path d="M567.72,255.14s-1.72-8.86-2-9.41-1-1.83-1.28-2.42c-.57-1.19-1.06-2.41-1.58-3.62,0-.1.11-.17.15-.07.57,1.16,1.23,2.28,1.9,3.39.33.54.66,1.09,1,1.62,0,0-1.61-8.6-1.84-10.12,0-.11.1-.15.14,0,.49,1.53,3.91,18.84,4.38,20.76A6,6,0,0,1,567.72,255.14Z" style="fill:#263238"></path><path d="M548.48,280.9c-1.71-.47-8.54-1.57-10.2-1.81a21.62,21.62,0,0,0,.6-3.74.08.08,0,0,0-.14,0,29.94,29.94,0,0,0-1.25,4.28c0,.14,9.2,1.3,11,1.39C548.51,281,548.53,280.92,548.48,280.9Z" style="fill:#263238"></path><path d="M546.19,212.63s.68,6.76,6.29,7.81,16.08-6.31,16.08-6.31a15.61,15.61,0,0,0-11.81-5.68C549.44,208.44,546.19,212.63,546.19,212.63Z" style="fill:#d3766a"></path><path d="M562.28,210.74c-.3,1-5.59,7.42-10.28,6.93-1.53-.17-1-8.55-1-8.55l-.1-.62-1.45-8.78,10.56-6,1.52-.78s.24,2.43.5,5.46c0,.14,0,.28,0,.43s0,.33.05.49c0,.45.09.91.12,1.37s.06.7.08,1.06l.06,1.1A57.7,57.7,0,0,1,562.28,210.74Z" style="fill:#d3766a"></path><path d="M562,198.44a17.88,17.88,0,0,1-11.13,10.06l-1.45-8.78,10.56-6,1.52-.78S561.75,195.41,562,198.44Z" style="fill:#263238"></path><path d="M539.28,183.33c-4.11,15.06,4.46,19.23,7.71,20.11,3,.8,13.09,3.15,18.74-11.41s-.06-21.24-6.72-23.43S543.39,168.26,539.28,183.33Z" style="fill:#d3766a"></path><path d="M544.71,180.38c.37,0,.71,0,1.08,0a1.74,1.74,0,0,0,1.1-.18.54.54,0,0,0,.16-.66,1.37,1.37,0,0,0-1.24-.63,2,2,0,0,0-1.41.4A.6.6,0,0,0,544.71,180.38Z" style="fill:#263238"></path><path d="M555.45,181.88a8.68,8.68,0,0,1-1-.45,1.72,1.72,0,0,1-.92-.64.55.55,0,0,1,.15-.66,1.35,1.35,0,0,1,1.4,0,2,2,0,0,1,1.08,1A.59.59,0,0,1,555.45,181.88Z" style="fill:#263238"></path><path d="M552,186.7s.06.07,0,.11c-.29,1-.44,2.25.41,2.82,0,0,0,.07,0,.05C551.34,189.24,551.57,187.62,552,186.7Z" style="fill:#263238"></path><path d="M553.19,185.85c1.7.28,1,3.65-.56,3.38S551.78,185.61,553.19,185.85Z" style="fill:#263238"></path><path d="M553.82,186.16c.25.25.47.65.82.76s.78-.17,1.12-.45c0,0,.06,0,0,.05-.13.65-.51,1.26-1.22,1.21s-1-.71-1-1.39C553.58,186.22,553.72,186.06,553.82,186.16Z" style="fill:#263238"></path><path d="M545.8,184.64s-.09,0-.1.08c-.19,1.05-.58,2.21-1.6,2.35,0,0,0,.06,0,.06C545.28,187.22,545.79,185.67,545.8,184.64Z" style="fill:#263238"></path><path d="M545.11,183.36c-1.65-.49-2.5,2.84-1,3.29S546.49,183.77,545.11,183.36Z" style="fill:#263238"></path><path d="M544.36,183.4c-.31.11-.65.36-1,.3s-.55-.5-.69-.9c0,0-.05,0-.06,0-.18.63-.14,1.35.44,1.63s1.07-.19,1.39-.78C544.53,183.56,544.48,183.36,544.36,183.4Z" style="fill:#263238"></path><path d="M549.34,194.58c-.29.2-.59.5-1,.47a2.84,2.84,0,0,1-1.08-.44s-.07,0-.06,0a1.45,1.45,0,0,0,1.24.79,1.15,1.15,0,0,0,1-.8C549.46,194.58,549.39,194.55,549.34,194.58Z" style="fill:#263238"></path><path d="M545.82,189.87s-.55,1.51-.71,2.24c0,.07.15.14.4.21,0,0,0,0,0,0a3.53,3.53,0,0,0,3.66-.56c.07-.06,0-.15-.09-.12a5.34,5.34,0,0,1-3.37.21c0-.21,1-2.54.92-2.58a6.45,6.45,0,0,0-1.75,0c1.07-3.17,2.63-6.14,3.64-9.31,0-.12-.13-.19-.18-.09a53.93,53.93,0,0,0-4.34,9.86C543.87,190.15,545.5,189.93,545.82,189.87Z" style="fill:#263238"></path><path d="M545.8,192.09a4.25,4.25,0,0,0,1.29,1.7,1.91,1.91,0,0,0,1.1.37c.86,0,1.08-.74,1.1-1.41a4.52,4.52,0,0,0-.1-1.06A5.53,5.53,0,0,1,545.8,192.09Z" style="fill:#263238"></path><path d="M547.09,193.79a1.91,1.91,0,0,0,1.1.37c.86,0,1.08-.74,1.1-1.41A2,2,0,0,0,547.09,193.79Z" style="fill:#ff9cbd"></path><path d="M564.89,191.78c-1.61-.57-4.58-6.29-2.44-14.22,0,0-1.43,7.26-1.19,8.45s-1.66-3.22,0-9.64a26.75,26.75,0,0,1-7.51,1.52c-3.24,0-5.08-.58-5.23-.86s4.67-.4,6.26-1.44c0,0-9.06,1.43-12.83.65-.43-.09,1.57-9,8.34-11.09s14.64,4.52,16.4,7.56c0,0,2.73,1.22,4.62,6.33S566.62,192.39,564.89,191.78Z" style="fill:#263238"></path><path d="M562.56,192.11s4.22-4.19,6.18-2.6-1.83,8.09-4.55,8.57a2.64,2.64,0,0,1-3.23-2Z" style="fill:#d3766a"></path><path d="M567.61,191.35s0,.06,0,.07c-1.92.4-3.17,1.89-4.14,3.49a1.45,1.45,0,0,1,2.22,0s0,.1-.07.08a1.62,1.62,0,0,0-1.86.24,8.29,8.29,0,0,0-1.1,1.27c-.12.15-.39,0-.29-.16l0,0C562.76,194,565.11,191.13,567.61,191.35Z" style="fill:#263238"></path><path d="M578.63,285.65l.26.06h0Z" style="fill:#d3766a"></path><path d="M603.56,280.76a5.43,5.43,0,0,1,.09.56.41.41,0,0,0,0-.11C603.62,281.06,603.59,280.91,603.56,280.76Z" style="fill:#9AC017"></path><path d="M603.56,280.76a5.43,5.43,0,0,1,.09.56.41.41,0,0,0,0-.11C603.62,281.06,603.59,280.91,603.56,280.76Z" style="fill:#9AC017"></path><path d="M577.45,288.37h0l.81.19Z" style="fill:#9AC017"></path><path d="M603.56,280.76a5.43,5.43,0,0,1,.09.56.41.41,0,0,0,0-.11C603.62,281.06,603.59,280.91,603.56,280.76Z" style="fill:#dbdbdb"></path></g></svg>
